<?xml version="1.0" standalone="no"?>
<!DOCTYPE svg PUBLIC "-//W3C//DTD SVG 20010904//EN"
 "http://www.w3.org/TR/2001/REC-SVG-20010904/DTD/svg10.dtd">
<svg version="1.0" xmlns="http://www.w3.org/2000/svg"
 width="539.000000pt" height="436.000000pt" viewBox="0 0 539.000000 436.000000"
 preserveAspectRatio="xMidYMid meet">

<g transform="translate(0.000000,436.000000) scale(0.100000,-0.100000)"
fill="#000000" stroke="none">
<path d="M0 2180 l0 -2180 2695 0 2695 0 0 2180 0 2180 -2695 0 -2695 0 0
-2180z m5380 2140 c0 -20 -7 -20 -2655 -20 l-2655 0 0 -2130 0 -2130 2655 0
c1763 0 2655 -3 2655 -10 0 -7 -900 -10 -2680 -10 l-2680 0 0 2160 0 2160
2680 0 c2673 0 2680 0 2680 -20z m-2457 -435 c134 -34 257 -93 349 -166 l37
-29 249 0 249 0 6 -49 c7 -58 34 -115 73 -155 39 -38 120 -76 167 -76 l37 0 0
-650 0 -650 212 -2 212 -3 12 -49 c16 -64 58 -105 120 -121 l49 -12 0 -269 0
-269 -35 -5 c-19 -4 -50 -15 -68 -25 -34 -20 -72 -85 -72 -123 0 -21 -2 -22
-212 -24 l-213 -3 -5 -130 -5 -130 -52 -6 c-122 -15 -221 -123 -223 -241 l0
-38 -243 0 c-241 0 -242 0 -268 -24 -52 -48 -209 -133 -305 -166 -87 -29 -115
-33 -229 -37 -150 -6 -230 8 -348 57 -81 34 -191 96 -247 142 l-35 28 -240 2
-240 3 -6 50 c-15 122 -102 209 -224 224 l-50 6 -3 133 -3 132 -213 0 -213 0
-6 40 c-10 73 -54 117 -127 127 l-40 6 0 273 c0 266 1 274 20 274 70 0 137 62
150 139 l5 36 213 3 212 2 2 648 3 647 46 6 c122 18 214 107 228 222 l6 52
249 3 249 2 36 29 c103 81 287 159 421 180 83 13 233 6 313 -14z"/>
<path d="M2629 3851 c-87 -12 -197 -49 -279 -92 -137 -73 -161 -69 380 -69
l485 1 -25 21 c-41 34 -200 105 -275 123 -85 19 -210 27 -286 16z"/>
<path d="M1695 3603 c-19 -104 -120 -211 -216 -229 -19 -4 -40 -11 -46 -17
-10 -7 -13 -145 -13 -628 l0 -619 60 0 60 0 0 98 c0 171 35 424 85 607 78 285
229 573 392 745 34 37 63 70 63 74 0 3 -85 6 -189 6 l-189 0 -7 -37z"/>
<path d="M2079 3552 c-291 -305 -464 -765 -486 -1289 l-6 -153 278 0 c266 0
277 1 262 18 -30 33 -47 90 -47 161 l0 69 -76 4 c-74 3 -77 5 -113 44 -48 51
-59 101 -34 151 28 57 64 77 146 83 l72 5 6 37 c3 20 18 52 32 72 16 21 23 37
17 41 -20 13 -62 108 -71 163 -10 66 3 166 31 229 28 63 94 129 147 147 59 20
132 20 208 1 34 -9 61 -12 63 -7 8 26 77 131 104 158 16 18 53 45 81 60 49 27
59 29 167 29 110 0 119 -2 182 -33 145 -71 218 -195 218 -370 0 -108 -51 -236
-119 -296 -27 -24 -27 -36 1 -36 12 0 38 -17 59 -39 l37 -40 39 29 38 29 153
1 152 0 -2 -272 -3 -272 -139 3 c-107 2 -148 7 -181 21 -24 10 -46 16 -49 13
-3 -4 -6 -28 -6 -55 0 -56 -18 -97 -55 -126 -21 -17 -23 -21 -9 -24 10 -2 170
-2 356 0 l338 3 0 107 c0 213 -44 478 -116 700 -46 141 -158 365 -239 477 -35
50 -99 125 -141 168 l-77 77 -567 0 -568 0 -83 -88z"/>
<path d="M3451 3558 c283 -326 450 -781 466 -1275 l6 -173 58 0 59 0 0 625 0
625 -27 5 c-109 24 -208 112 -239 214 l-18 61 -188 0 -189 0 72 -82z"/>
<path d="M2749 3526 c-90 -32 -173 -126 -204 -229 -7 -23 -14 -41 -16 -40 -57
29 -111 44 -171 49 -63 6 -80 4 -115 -14 -164 -84 -199 -368 -60 -487 22 -19
39 -36 36 -38 -2 -1 -21 -10 -42 -20 -42 -19 -57 -48 -57 -108 l0 -39 -84 0
c-76 0 -87 -3 -115 -26 -25 -21 -31 -33 -31 -66 0 -79 42 -108 160 -108 l70 0
0 -85 c0 -106 16 -150 62 -170 50 -20 602 -32 779 -16 222 21 239 32 239 167
0 51 4 84 10 84 6 0 40 -13 77 -30 61 -28 75 -30 179 -30 l114 0 0 230 0 230
-123 0 -123 0 -64 -45 c-36 -25 -66 -42 -67 -38 0 4 -4 20 -7 35 -10 44 -42
66 -105 73 -85 10 -88 12 -45 43 62 45 131 128 149 180 39 114 28 260 -29 354
-39 64 -132 131 -206 147 -68 15 -166 13 -211 -3z m167 -25 c53 -24 98 -72
131 -141 25 -49 27 -66 28 -160 0 -96 -2 -109 -29 -160 -110 -212 -295 -261
-426 -113 -98 112 -99 325 0 468 73 105 198 150 296 106z m109 -20 c42 -19
104 -81 128 -128 24 -45 40 -149 34 -213 -10 -113 -87 -235 -178 -283 -33 -18
-33 -18 -10 0 14 10 48 41 76 68 76 73 110 175 85 255 l-7 25 -11 -25 -11 -25
-1 25 -1 25 -13 -24 c-12 -21 -13 -17 -19 54 -7 90 -39 165 -97 226 -41 43
-35 48 25 20z m-637 -212 c85 -42 129 -159 103 -273 -38 -163 -153 -251 -259
-197 -81 42 -117 119 -110 241 7 115 52 194 133 231 52 24 79 24 133 -2z m92
-14 c16 -8 34 -24 40 -35 9 -17 8 -20 -12 -20 -14 0 -34 13 -51 35 -30 38 -23
44 23 20z m304 -451 c14 -5 16 -29 14 -173 l-2 -166 -5 133 c-6 133 -6 134
-35 159 -28 24 -34 25 -110 18 -118 -9 -359 -44 -408 -59 -64 -18 -68 -31 -68
-264 0 -240 4 -256 72 -265 92 -13 463 -19 490 -8 29 11 47 37 59 86 5 21 7
11 6 -35 -2 -60 -4 -65 -29 -74 -16 -6 -129 -6 -298 0 l-272 9 -24 28 c-24 28
-24 30 -24 257 0 223 1 229 23 254 20 23 41 27 282 61 143 21 262 39 264 41 7
6 48 5 65 -2z m264 -25 c103 -13 127 -30 120 -86 -3 -26 -4 -25 -18 17 -17 51
-17 51 -207 65 l-103 7 0 -75 c0 -62 3 -78 18 -86 15 -8 17 -26 17 -134 0
-106 -3 -128 -18 -145 -15 -16 -17 -34 -15 -93 l3 -74 85 3 c97 4 209 18 219
27 3 4 9 50 12 103 l5 97 2 -91 c3 -132 5 -130 -185 -151 -84 -10 -153 -15
-155 -13 -2 3 -2 151 0 329 l3 324 62 -6 c34 -3 104 -11 155 -18z m502 -36 c0
-8 -4 -12 -10 -8 -5 3 -34 -8 -64 -25 -68 -39 -112 -38 -108 0 4 40 29 51 110
49 54 -1 72 -5 72 -16z m-217 -125 c11 -192 9 -248 -7 -248 -7 0 -45 14 -85
31 -70 31 -71 33 -71 69 0 20 -3 64 -6 97 l-7 61 79 55 c44 31 82 57 85 57 3
0 9 -55 12 -122z m-680 93 c14 -6 29 -23 36 -42 15 -43 15 -346 0 -389 -18
-51 -48 -58 -254 -55 l-179 3 -23 27 c-25 29 -29 72 -24 270 4 130 12 140 131
155 47 6 123 17 170 24 108 18 114 18 143 7z m82 -31 c12 -23 15 -68 15 -213
0 -171 -1 -186 -21 -211 -28 -36 -41 -33 -21 7 13 26 16 66 16 212 0 116 -4
190 -12 208 -16 37 3 35 23 -3z m333 -13 c23 -18 12 -25 -28 -20 -48 7 -66 -6
-93 -66 -48 -108 34 -229 124 -181 28 15 23 -5 -6 -24 -104 -68 -204 110 -136
242 31 62 94 84 139 49z m483 -152 l3 -160 -99 -1 c-55 -1 -85 1 -67 3 36 5
41 17 12 33 -11 6 -20 15 -20 19 0 18 32 20 61 6 16 -9 29 -11 29 -6 0 6 -9
15 -20 21 -22 12 -25 35 -10 75 9 25 11 25 34 10 19 -13 25 -13 29 -3 4 8 6 7
6 -4 1 -10 5 -18 10 -18 6 0 12 -15 14 -32 2 -18 5 25 5 96 1 71 4 127 6 125
3 -2 6 -76 7 -164z m-164 137 c18 -12 43 -77 43 -114 0 -34 -32 -98 -50 -98
-5 0 -1 15 10 33 30 48 27 117 -6 156 -25 29 -23 40 3 23z m-377 -24 c-1 -17
-49 -98 -54 -90 -11 19 24 92 45 92 5 0 9 -1 9 -2z m135 -71 c12 -107 9 -111
-59 -117 -53 -5 -60 -3 -73 17 -21 32 -13 131 12 149 11 8 40 14 66 14 l47 0
7 -63z m-1119 -9 c-3 -13 -6 -35 -6 -49 0 -26 -2 -27 -36 -19 -20 5 -43 6 -50
3 -22 -8 -17 44 6 67 13 13 33 20 56 20 33 0 36 -2 30 -22z m89 -12 c1 -39
-17 -60 -43 -52 -29 10 -29 50 0 70 30 21 43 15 43 -18z m898 -126 c-6 -7 -43
39 -43 54 0 6 11 -2 24 -19 13 -16 22 -32 19 -35z"/>
<path d="M2865 3458 c-51 -30 -61 -98 -21 -145 21 -24 27 -26 52 -18 38 13 70
71 60 108 -7 31 -40 67 -58 67 -7 0 -22 -6 -33 -12z"/>
<path d="M2676 3419 c-22 -17 -26 -28 -26 -69 0 -54 18 -80 55 -80 58 0 91
120 43 154 -29 21 -40 20 -72 -5z"/>
<path d="M2774 3284 c-29 -14 -53 -49 -69 -99 -6 -18 -8 -16 -20 12 -31 74
-115 39 -115 -48 0 -89 95 -108 116 -23 7 29 24 32 24 4 0 -29 47 -70 81 -70
60 0 117 87 103 159 -6 31 -54 81 -77 81 -7 0 -26 -7 -43 -16z m85 -40 c27
-35 27 -83 -2 -125 -18 -27 -30 -35 -60 -37 -32 -3 -39 1 -57 30 -27 42 -21
114 11 141 33 26 83 22 108 -9z"/>
<path d="M2771 3221 c-26 -26 -27 -52 -3 -82 22 -26 43 -22 67 15 14 21 15 29
3 53 -17 35 -41 40 -67 14z"/>
<path d="M2959 3278 c-30 -10 -49 -45 -49 -89 0 -35 39 -79 70 -79 49 0 84 83
58 136 -16 33 -44 44 -79 32z m-17 -65 c-3 -16 -7 -22 -10 -15 -4 13 4 42 11
42 2 0 2 -12 -1 -27z"/>
<path d="M2850 3055 c-29 -30 -31 -96 -5 -125 42 -46 115 -3 115 67 0 78 -61
110 -110 58z"/>
<path d="M2674 3039 c-23 -25 -26 -98 -5 -122 7 -10 28 -17 46 -17 43 0 60 23
60 80 0 26 -6 54 -14 63 -19 23 -64 21 -87 -4z"/>
<path d="M2332 3237 c-34 -40 -16 -117 28 -117 42 0 67 82 34 114 -19 19 -48
21 -62 3z"/>
<path d="M2212 3214 c-24 -16 -30 -61 -12 -94 9 -17 18 -19 64 -14 72 7 90
-10 84 -80 l-5 -51 15 35 c13 31 15 33 22 15 21 -57 70 -52 90 9 15 47 0 76
-39 76 -22 0 -32 -7 -44 -32 -14 -29 -17 -31 -23 -13 -12 35 -36 55 -64 55
-25 0 -27 3 -26 41 1 31 -4 45 -19 55 -18 12 -24 12 -43 -2z"/>
<path d="M2146 3058 c-30 -42 -13 -98 29 -98 28 0 45 26 45 67 0 53 -46 72
-74 31z"/>
<path d="M2281 3066 c-18 -22 -10 -61 13 -61 26 0 44 30 30 52 -15 23 -29 26
-43 9z"/>
<path d="M2231 3029 c0 -13 4 -33 9 -44 7 -14 8 -8 3 20 -7 46 -13 59 -12 24z"/>
<path d="M2260 2958 c0 -5 -9 -8 -19 -8 -24 0 -51 -36 -51 -67 0 -13 9 -32 21
-44 18 -18 23 -19 42 -6 25 16 35 80 16 103 -9 12 -6 14 19 14 17 0 33 3 35 8
3 4 -10 7 -29 7 -19 0 -34 -3 -34 -7z"/>
<path d="M2332 2948 c-28 -28 -6 -118 29 -118 21 0 49 42 49 73 0 38 -15 57
-45 57 -12 0 -26 -5 -33 -12z"/>
<path d="M3286 2691 c-3 -5 1 -11 8 -14 11 -5 13 -18 9 -59 -3 -29 -10 -56
-14 -59 -5 -3 -29 -5 -54 -4 -51 2 -59 -11 -53 -76 3 -30 9 -37 60 -62 31 -16
62 -26 67 -22 7 4 11 61 11 156 0 123 -3 149 -14 149 -8 0 -17 -4 -20 -9z"/>
<path d="M2480 2684 c-52 -7 -125 -16 -162 -20 -41 -4 -73 -13 -80 -22 -9 -11
-13 -64 -13 -188 0 -211 -2 -208 113 -211 339 -8 328 -11 342 69 14 72 0 350
-18 371 -18 20 -48 20 -182 1z m160 -108 c0 -41 -3 -77 -7 -79 -5 -2 -88 -8
-186 -11 l-178 -7 3 73 3 73 125 11 c69 6 151 12 183 13 l57 1 0 -74z m-310
-200 c6 -8 10 -25 8 -38 -2 -17 -10 -23 -28 -23 -18 0 -26 6 -28 23 -3 22 13
52 28 52 4 0 13 -7 20 -14z m124 8 c10 -4 16 -18 16 -41 0 -32 -2 -34 -27 -31
-31 3 -43 38 -23 64 14 16 13 16 34 8z m147 -18 c20 -43 -18 -85 -49 -54 -25
25 -8 78 25 78 7 0 18 -11 24 -24z m-107 -36 c-5 -5 -9 4 -10 23 -1 30 -1 30
9 9 6 -14 7 -26 1 -32z m146 22 c0 -9 -5 -24 -10 -32 -7 -11 -10 -5 -10 23 0
23 4 36 10 32 6 -3 10 -14 10 -23z m-279 -19 c-9 -16 -10 -14 -11 12 0 21 3
26 11 18 8 -8 8 -16 0 -30z"/>
<path d="M2318 2613 c-27 -4 -28 -7 -28 -59 l0 -54 68 0 c41 0 62 4 53 9 -11
7 -11 9 0 14 12 4 11 7 -1 16 -12 9 -9 11 13 11 36 0 26 20 -11 21 -24 2 -24
2 -4 6 25 5 30 23 6 23 -8 0 -12 5 -9 10 6 10 -32 11 -87 3z"/>
<path d="M3055 2550 c-25 -4 -31 -10 -33 -38 -2 -18 2 -40 9 -48 14 -17 70
-19 87 -2 15 15 16 92 2 83 -5 -3 -10 -2 -10 3 0 10 -12 10 -55 2z"/>
<path d="M970 2013 c-28 -64 -46 -82 -108 -109 l-52 -24 2 -227 3 -226 43 -15
c47 -15 100 -70 117 -123 l12 -34 1745 -3 1746 -2 7 27 c13 54 52 100 109 128
l56 27 0 228 0 227 -39 11 c-47 15 -116 86 -126 131 l-7 31 -1743 0 -1744 0
-21 -47z m198 -219 c29 -20 30 -70 2 -79 -30 -9 -50 12 -50 51 0 39 -14 43
-60 19 -39 -20 -54 -73 -40 -146 16 -85 52 -124 108 -117 23 3 27 8 30 41 2
26 -2 45 -14 58 -17 18 -16 19 33 19 l51 0 -5 -42 c-7 -53 -35 -85 -85 -98
-141 -39 -238 126 -152 258 31 47 136 69 182 36z m280 -19 l4 -30 -24 23 c-16
14 -37 22 -61 22 l-37 0 0 -50 c0 -47 2 -50 25 -50 14 0 28 7 31 15 11 28 24
15 24 -25 0 -40 -13 -53 -24 -25 -3 8 -17 15 -31 15 -25 0 -25 -1 -25 -80 l0
-80 39 0 c30 0 44 6 59 25 22 28 31 25 24 -10 -4 -25 -6 -25 -105 -25 -79 0
-98 3 -89 12 15 15 17 264 2 273 -30 18 -2 25 88 23 l97 -3 3 -30z m265 8 c7
-37 0 -42 -19 -14 -11 15 -24 21 -42 19 l-27 -3 -3 -123 c-1 -73 2 -130 8
-142 10 -19 8 -20 -32 -20 l-43 0 3 145 3 145 -25 0 c-14 0 -31 -9 -40 -22
-19 -27 -31 -18 -22 17 6 25 7 25 120 25 l114 0 5 -27z m347 14 c40 -14 64
-54 54 -92 -8 -31 -35 -47 -94 -55 l-45 -5 -3 -58 c-2 -35 2 -64 9 -73 10 -12
4 -14 -32 -14 l-44 0 3 141 c3 98 0 144 -8 155 -11 12 -3 14 56 13 38 0 85 -5
104 -12z m245 -1 c18 -8 39 -24 45 -36 16 -31 3 -79 -26 -92 -13 -6 -24 -16
-24 -21 0 -15 64 -127 72 -127 5 0 8 -5 8 -11 0 -6 -16 -9 -37 -7 -36 3 -40 7
-76 76 -21 40 -42 70 -48 67 -13 -9 -11 -119 3 -133 9 -9 2 -12 -32 -12 l-45
0 3 141 c3 98 0 144 -8 155 -11 12 -2 14 59 14 39 0 87 -6 106 -14z m300 0
c62 -26 98 -119 75 -193 -60 -188 -322 -111 -285 83 19 101 113 150 210 110z
m299 -10 c88 -57 88 -212 1 -266 -25 -15 -50 -20 -106 -20 l-74 0 3 134 c2 90
0 142 -8 157 l-12 22 85 -5 c58 -3 93 -10 111 -22z m179 2 c-4 -13 -7 -72 -6
-132 3 -124 13 -146 69 -146 23 0 38 7 53 26 18 23 21 41 21 135 0 61 -4 110
-10 114 -20 12 -9 25 21 25 24 0 29 -3 21 -12 -5 -7 -12 -66 -14 -130 -5 -130
-13 -148 -74 -168 -41 -14 -103 1 -130 31 -16 18 -20 40 -23 138 -1 64 -8 122
-13 129 -8 9 1 12 41 12 50 0 52 -1 44 -22z m402 10 c30 -13 43 -52 25 -73
-27 -33 -64 -10 -62 39 1 32 -1 36 -24 36 -15 0 -38 -12 -55 -29 -24 -24 -29
-38 -29 -78 0 -138 83 -215 164 -152 22 17 26 18 26 4 0 -25 -84 -58 -128 -50
-46 8 -88 38 -107 75 -21 40 -19 128 3 169 33 61 122 89 187 59z m309 -14 c9
-35 -1 -43 -20 -16 -9 13 -26 22 -40 22 l-25 0 3 -145 3 -145 -40 0 -40 0 3
145 3 145 -25 0 c-14 0 -31 -9 -40 -22 -19 -27 -31 -18 -22 17 6 25 7 25 120
25 l114 0 6 -26z m116 12 c-8 -11 -11 -57 -8 -155 l3 -141 -44 0 c-38 0 -42 2
-35 18 5 9 9 71 9 137 0 66 -4 128 -9 138 -7 15 -2 17 44 17 45 0 51 -2 40
-14z m243 -1 c51 -24 77 -72 77 -139 0 -31 -7 -70 -15 -86 -51 -99 -204 -99
-255 0 -71 140 58 290 193 225z m247 -85 l65 -95 3 83 c2 53 -1 89 -9 98 -9
12 -6 14 20 14 28 0 31 -2 21 -19 -5 -11 -10 -78 -10 -150 0 -71 -4 -132 -9
-136 -5 -3 -45 47 -88 112 -44 64 -85 119 -91 121 -15 5 -17 -191 -2 -219 9
-16 7 -19 -15 -19 -22 0 -24 3 -15 19 13 25 13 258 0 266 -22 14 -8 26 28 23
35 -3 41 -9 102 -98z"/>
<path d="M1970 1730 c0 -66 12 -80 50 -60 28 15 40 49 28 80 -11 29 -25 40
-55 40 -21 0 -23 -4 -23 -60z"/>
<path d="M2212 1728 c3 -70 18 -83 58 -50 47 38 22 112 -37 112 -23 0 -24 -3
-21 -62z"/>
<path d="M2495 1777 c-46 -39 -55 -157 -19 -228 24 -47 77 -53 115 -13 20 21
24 38 27 100 5 82 -8 126 -42 149 -29 21 -51 19 -81 -8z"/>
<path d="M2790 1651 l0 -141 26 0 c62 0 94 50 94 148 0 80 -29 126 -83 130
l-37 3 0 -140z"/>
<path d="M4040 1772 c-51 -51 -53 -190 -4 -239 32 -32 79 -28 107 9 40 53 35
191 -8 234 -32 32 -60 30 -95 -4z"/>
<path d="M1424 1197 c-2 -7 -3 -56 -2 -107 l3 -94 41 -12 c120 -35 193 -108
228 -228 l12 -41 177 -3 c97 -1 177 1 177 4 0 6 -75 98 -108 133 -28 29 -117
169 -166 260 l-51 96 -153 3 c-121 2 -154 0 -158 -11z"/>
<path d="M1800 1200 c0 -17 47 -105 97 -183 65 -101 123 -175 194 -246 l61
-61 582 0 582 0 50 53 c58 60 126 142 170 207 44 63 124 210 124 226 0 12
-146 14 -930 14 -633 0 -930 -3 -930 -10z m333 -158 c22 -24 13 -33 -24 -25
-38 7 -38 -12 1 -32 36 -19 50 -43 40 -71 -16 -41 -110 -34 -110 8 0 19 15 24
25 8 8 -13 55 -13 55 0 0 5 -18 21 -40 35 -29 19 -40 32 -40 50 0 41 64 59 93
27z m408 8 c31 -17 22 -30 -21 -30 -31 0 -43 -5 -56 -25 -15 -23 -15 -27 1
-51 15 -23 22 -26 56 -21 43 6 57 -4 33 -24 -27 -22 -86 -14 -111 16 -32 37
-30 80 6 116 31 30 59 36 92 19z m166 -7 c3 -7 -10 -13 -34 -15 -27 -2 -39 -8
-41 -20 -3 -15 4 -18 32 -18 25 0 36 -4 36 -15 0 -10 -11 -15 -35 -15 -28 0
-35 -4 -35 -20 0 -17 7 -20 40 -20 29 0 40 -4 40 -15 0 -12 -13 -15 -55 -15
l-55 0 0 79 c0 54 4 81 13 85 22 9 90 1 94 -11z m225 0 c27 -24 22 -45 -18
-84 l-35 -34 37 -5 c21 -3 39 -11 42 -17 3 -10 -14 -13 -62 -13 -80 0 -84 11
-26 66 22 21 40 44 40 50 0 20 -19 27 -35 14 -8 -6 -22 -10 -32 -8 -16 3 -16
5 5 26 26 26 58 28 84 5z m165 -5 c17 -16 23 -32 23 -66 0 -56 -21 -82 -65
-82 -54 0 -85 54 -65 115 19 57 66 72 107 33z m153 2 c27 -27 26 -34 -16 -79
l-35 -40 37 -3 c21 -2 39 -9 42 -15 3 -10 -14 -13 -62 -13 -81 0 -86 15 -25
71 27 25 39 44 36 54 -7 17 -23 20 -32 5 -8 -13 -45 -13 -45 -1 0 14 41 41 62
41 10 0 27 -9 38 -20z m125 -8 c-4 -10 4 -23 21 -37 49 -39 29 -105 -32 -105
-63 0 -83 54 -43 120 12 19 26 38 32 42 16 10 29 -2 22 -20z m-1155 -62 c0
-64 -3 -80 -15 -80 -12 0 -15 16 -15 80 0 64 3 80 15 80 12 0 15 -16 15 -80z
m100 38 c20 -34 25 -39 28 -23 8 52 13 65 27 65 12 0 15 -16 15 -81 0 -78 -1
-80 -22 -77 -14 2 -31 17 -43 40 -26 49 -35 48 -35 -2 0 -29 -4 -40 -15 -40
-12 0 -15 16 -15 80 0 71 2 80 18 80 11 0 28 -17 42 -42z"/>
<path d="M3030 1011 c-22 -43 -6 -91 31 -91 31 0 40 67 13 94 -20 21 -31 20
-44 -3z"/>
<path d="M3340 965 c-18 -21 -5 -47 22 -43 26 3 37 36 16 49 -18 12 -24 11
-38 -6z"/>
<path d="M3694 1138 c-54 -107 -151 -253 -227 -340 -37 -42 -67 -79 -67 -82 0
-3 80 -6 179 -6 l179 0 11 48 c26 105 117 196 222 223 l50 13 -3 105 -3 106
-152 3 -152 3 -37 -73z"/>
<path d="M2240 645 c21 -26 170 -102 255 -131 72 -25 94 -28 225 -28 109 -1
161 3 210 16 68 19 247 104 290 138 l25 20 -509 0 c-455 0 -507 -2 -496 -15z"/>
</g>
</svg>
